<svg width="26" height="12" viewBox="0 0 26 12" fill="none" xmlns="http://www.w3.org/2000/svg">
<path d="M4.65674 11.895C3.07129 11.895 1.90088 11.7041 1.0376 10.8491C0.182617 9.99414 0 8.83203 0 7.23828V4.63184C0 3.06299 0.182617 1.90088 1.0376 1.0459C1.89258 0.190918 3.07959 0 4.64014 0H17.6475C19.2329 0 20.4033 0.182617 21.2666 1.0459C22.1299 1.90088 22.3042 3.06299 22.3042 4.64844V7.23828C22.3042 8.83203 22.1299 9.98584 21.2666 10.8491C20.4116 11.7041 19.2329 11.895 17.6475 11.895H4.65674ZM4.42432 10.0439H17.8799C18.7432 10.0439 19.4819 9.92773 19.9136 9.49609C20.3452 9.05615 20.4531 8.34229 20.4531 7.4707V4.41602C20.4531 3.55273 20.3452 2.83057 19.9136 2.39893C19.4819 1.96729 18.7432 1.84277 17.8799 1.84277H4.44092C3.56104 1.84277 2.82227 1.95898 2.39062 2.39893C1.95898 2.83057 1.85107 3.55273 1.85107 4.43262V7.4707C1.85107 8.34229 1.95898 9.06445 2.39062 9.49609C2.82227 9.91943 3.56104 10.0439 4.42432 10.0439ZM4.18359 8.93994C3.71045 8.93994 3.42822 8.87354 3.229 8.67432C3.02979 8.4751 2.95508 8.19287 2.95508 7.71143V4.19189C2.95508 3.70215 3.02979 3.41992 3.229 3.2207C3.42822 3.02148 3.71045 2.94678 4.2002 2.94678H14.02C14.4932 2.94678 14.7754 3.02148 14.9829 3.2207C15.1821 3.41992 15.2568 3.70215 15.2568 4.17529V7.71143C15.2568 8.18457 15.1821 8.4751 14.9746 8.67432C14.7754 8.87354 14.4932 8.93994 14.02 8.93994H4.18359ZM23.5742 8.27588V3.61084C24.2881 3.66064 25.2427 4.57373 25.2427 5.94336C25.2427 7.32129 24.2881 8.23438 23.5742 8.27588Z" fill="#EBEBF5" fill-opacity="0.3"/>
</svg>
